<?xml version="1.0" standalone="no"?>
<!DOCTYPE svg PUBLIC "-//W3C//DTD SVG 20010904//EN"
 "http://www.w3.org/TR/2001/REC-SVG-20010904/DTD/svg10.dtd">
<svg version="1.0" xmlns="http://www.w3.org/2000/svg"
 width="1920.000000pt" height="1080.000000pt" viewBox="0 0 1920.000000 1080.000000"
 preserveAspectRatio="xMidYMid meet">

<g transform="translate(0.000000,1080.000000) scale(0.100000,-0.100000)"
fill="#000000" stroke="none">
<path d="M0 5400 l0 -5400 9600 0 9600 0 0 5400 0 5400 -9600 0 -9600 0 0
-5400z m4099 2566 c57 -30 69 -116 23 -167 -37 -42 -110 -51 -159 -20 -64 40
-66 133 -5 181 30 24 100 27 141 6z m6151 -731 l0 -725 -90 0 -90 0 0 718 c0
395 3 722 7 725 3 4 44 7 90 7 l83 0 0 -725z m-2916 666 c159 -57 253 -163
272 -308 l7 -53 -91 0 -90 0 -7 33 c-28 125 -117 186 -290 194 -231 12 -346
-63 -346 -223 0 -131 88 -188 371 -239 276 -50 407 -120 471 -252 46 -95 41
-245 -12 -344 -74 -138 -228 -214 -459 -226 -315 -16 -563 141 -587 373 l-6
54 92 0 c88 0 91 -1 91 -22 0 -39 45 -122 85 -157 22 -19 64 -46 95 -60 51
-24 65 -26 190 -26 160 0 220 16 286 77 56 51 78 109 72 187 -9 132 -104 194
-364 241 -332 60 -484 166 -509 355 -8 60 7 153 35 211 43 88 154 168 278 199
89 23 338 14 416 -14z m-5552 -616 c142 -335 274 -647 293 -692 l34 -83 -97 0
-97 0 -65 158 -65 157 -351 3 -351 2 -66 -157 -66 -158 -97 -3 c-89 -3 -96 -1
-90 15 4 10 136 323 294 696 l286 678 90 -3 90 -3 258 -610z m1708 430 l0
-155 173 -2 172 -3 3 -77 3 -78 -176 0 -175 0 0 -283 c0 -313 7 -361 58 -410
39 -37 80 -47 194 -47 l98 0 0 -76 0 -76 -152 4 c-172 4 -215 17 -277 79 -83
84 -101 181 -101 550 l0 259 -115 0 -116 0 3 78 3 77 113 3 112 3 0 148 c0 81
3 151 7 154 3 4 44 7 90 7 l83 0 0 -155z m-725 -150 c85 -23 152 -62 221 -130
55 -55 108 -138 128 -202 7 -23 6 -23 -83 -23 l-91 0 -19 39 c-11 21 -43 59
-71 84 -115 103 -294 112 -427 21 -196 -135 -215 -451 -36 -614 76 -69 144
-93 253 -88 131 6 227 64 280 168 l20 40 91 0 c105 0 103 6 42 -112 -105 -202
-342 -307 -569 -253 -104 24 -173 63 -250 139 -115 115 -164 234 -164 403 0
251 157 464 390 529 64 17 214 17 285 -1z m2174 0 c94 -25 163 -65 237 -139
121 -121 170 -251 161 -426 -16 -289 -221 -498 -507 -517 -164 -10 -311 47
-424 167 -179 190 -202 473 -57 697 65 101 162 172 291 214 69 22 223 25 299
4z m1285 -20 c74 -35 132 -94 169 -169 49 -100 57 -174 57 -537 l0 -329 -90 0
-90 0 0 333 c0 370 -4 402 -63 478 -50 66 -113 93 -217 94 -72 0 -94 -4 -142
-27 -95 -44 -162 -130 -188 -240 -5 -24 -10 -177 -10 -340 l0 -298 -90 0 -90
0 2 523 3 522 83 3 82 3 0 -103 0 -103 35 53 c39 57 95 103 165 135 71 32 98
36 215 33 97 -2 117 -6 169 -31z m2152 21 c131 -35 254 -134 318 -255 53 -101
52 -101 -52 -101 l-87 0 -24 45 c-30 57 -79 101 -151 134 -45 21 -70 26 -140
26 -76 0 -92 -3 -151 -32 -131 -65 -199 -173 -207 -327 -9 -176 60 -300 208
-376 67 -35 195 -40 271 -11 70 26 137 84 170 145 l24 46 87 0 c65 0 88 -3 88
-13 0 -7 -16 -45 -35 -86 -149 -311 -580 -376 -830 -126 -73 73 -137 193 -154
289 -50 278 102 546 359 633 77 27 224 31 306 9z m1025 -1 c98 -25 196 -93
248 -171 l30 -46 3 103 3 104 83 3 82 3 0 -526 0 -525 -85 0 -85 0 -1 103 c0
83 -2 98 -12 82 -7 -10 -36 -45 -66 -78 -177 -189 -494 -181 -679 17 -106 114
-152 234 -152 398 0 113 18 187 68 282 62 119 166 207 290 247 70 22 197 24
273 4z m1672 -5 c211 -65 357 -272 357 -505 l0 -65 -428 0 c-236 0 -431 -3
-434 -6 -11 -10 19 -112 46 -159 68 -115 155 -168 286 -173 113 -5 180 19 241
86 24 27 49 56 54 66 9 15 23 17 107 14 l98 -3 -33 -63 c-55 -108 -161 -199
-283 -244 -89 -32 -255 -31 -344 3 -223 84 -353 277 -353 519 0 247 140 451
363 527 88 30 230 31 323 3z m-6953 -525 l0 -525 -90 0 -90 0 0 518 c0 285 3
522 7 525 3 4 44 7 90 7 l83 0 0 -525z"/>
<path d="M1422 7640 c-5 -14 -69 -166 -141 -339 -73 -172 -130 -315 -128 -317
2 -3 130 -3 284 -2 l280 3 -138 330 c-77 182 -141 335 -143 340 -2 6 -8 -1
-14 -15z"/>
<path d="M4700 7405 c-63 -18 -148 -73 -183 -118 -153 -201 -93 -499 121 -604
51 -25 68 -28 157 -28 88 0 107 3 157 27 73 34 137 98 174 174 27 55 29 67 29
174 0 110 -2 119 -32 181 -79 159 -255 240 -423 194z"/>
<path d="M9227 7410 c-67 -17 -133 -58 -185 -114 -170 -187 -116 -499 106
-612 52 -26 66 -29 162 -29 100 0 108 1 168 34 106 58 170 150 194 280 41 217
-123 433 -338 446 -38 2 -86 0 -107 -5z"/>
<path d="M10820 7405 c-124 -35 -208 -119 -245 -242 l-6 -23 340 0 c391 0 364
-9 310 98 -35 71 -71 104 -155 144 -77 36 -167 44 -244 23z"/>
</g>
</svg>
