<?xml version="1.0" standalone="no"?>
<!DOCTYPE svg PUBLIC "-//W3C//DTD SVG 20010904//EN"
 "http://www.w3.org/TR/2001/REC-SVG-20010904/DTD/svg10.dtd">
<svg version="1.0" xmlns="http://www.w3.org/2000/svg"
 width="1920.000000pt" height="1080.000000pt" viewBox="0 0 1920.000000 1080.000000"
 preserveAspectRatio="xMidYMid meet">

<g transform="translate(0.000000,1080.000000) scale(0.100000,-0.100000)"
fill="#000000" stroke="none">
<path d="M5008 7834 c-36 -19 -48 -43 -48 -96 1 -46 10 -64 50 -91 46 -32 139
-13 168 34 17 26 18 89 3 117 -26 48 -117 67 -173 36z"/>
<path d="M11110 7100 l0 -720 90 0 90 0 0 720 0 720 -90 0 -90 0 0 -720z"/>
<path d="M7952 7780 c-143 -38 -240 -116 -282 -228 -27 -72 -25 -215 4 -274
67 -137 190 -200 511 -263 126 -25 238 -66 278 -103 65 -59 77 -200 25 -280
-33 -49 -96 -88 -175 -109 -66 -17 -252 -14 -315 6 -95 30 -189 127 -203 211
l-7 40 -89 0 c-87 0 -89 0 -89 -24 0 -45 39 -149 76 -203 59 -86 163 -151 294
-184 80 -20 307 -17 390 5 99 27 169 65 231 126 76 75 102 142 103 266 0 82
-2 96 -32 156 -67 136 -189 202 -472 253 -285 52 -370 108 -370 244 0 75 29
132 87 170 60 40 135 54 257 49 111 -4 177 -26 230 -76 32 -30 65 -96 66 -129
0 -22 3 -23 91 -23 l92 0 -6 54 c-16 158 -156 291 -342 325 -94 17 -269 13
-353 -9z"/>
<path d="M2095 7083 c-159 -377 -292 -690 -293 -695 -2 -5 39 -7 94 -6 l97 3
61 145 c34 80 65 151 69 158 12 18 692 18 704 0 4 -7 35 -78 69 -158 l61 -145
97 -3 c55 -1 96 1 94 6 -1 5 -133 318 -293 695 l-290 687 -90 0 -90 -1 -290
-686z m665 -230 c0 -2 -129 -3 -286 -3 -158 0 -284 4 -282 9 2 4 66 159 143
343 l140 334 142 -341 c79 -187 143 -341 143 -342z"/>
<path d="M4357 7733 c-4 -3 -7 -75 -7 -160 l0 -153 -115 0 -115 0 0 -75 0 -75
114 0 114 0 5 -307 c6 -378 16 -424 107 -507 68 -62 97 -69 268 -74 l153 -4
-3 73 -3 74 -117 5 c-125 5 -148 14 -191 71 -32 43 -37 95 -37 387 l0 282 175
0 175 0 0 75 0 75 -175 0 -175 0 0 160 0 160 -83 0 c-46 0 -87 -3 -90 -7z"/>
<path d="M3500 7427 c-142 -48 -247 -140 -310 -272 -44 -93 -60 -159 -60 -253
1 -256 173 -481 411 -537 232 -54 482 57 578 258 54 113 56 107 -48 107 l-91
0 -14 -35 c-24 -57 -104 -129 -172 -154 -80 -30 -206 -27 -276 7 -151 74 -229
232 -207 417 16 126 98 239 213 291 51 24 74 28 146 28 71 1 94 -4 142 -26 63
-29 138 -99 158 -147 l12 -31 89 0 c58 0 89 4 89 11 0 32 -69 147 -120 203
-101 107 -221 156 -385 156 -66 0 -107 -6 -155 -23z"/>
<path d="M5670 7427 c-178 -61 -304 -192 -355 -371 -21 -72 -24 -210 -6 -286
48 -200 213 -364 408 -405 93 -20 166 -19 257 5 105 27 169 63 246 140 130
130 188 328 149 512 -41 195 -199 362 -390 413 -84 23 -231 19 -309 -8z m315
-171 c153 -70 238 -236 213 -419 -17 -122 -83 -220 -190 -278 -60 -33 -67 -34
-168 -34 -95 0 -111 3 -162 28 -73 36 -149 119 -179 195 -18 45 -23 78 -23
157 -1 89 2 107 26 158 37 78 78 129 136 166 102 65 240 76 347 27z"/>
<path d="M6928 7431 c-85 -27 -155 -77 -204 -144 l-44 -59 0 96 0 96 -85 0
-85 0 0 -520 0 -520 90 0 90 0 0 298 c0 337 6 381 66 469 115 168 379 192 491
45 61 -80 65 -111 71 -479 l4 -333 84 0 84 0 0 333 c0 352 -7 416 -50 514 -48
109 -123 177 -229 207 -74 22 -210 20 -283 -3z"/>
<path d="M9131 7434 c-84 -23 -150 -63 -227 -139 -173 -171 -211 -424 -98
-654 187 -379 749 -385 929 -10 19 41 35 79 35 86 0 10 -23 13 -88 13 l-87 0
-24 -45 c-54 -102 -164 -165 -289 -165 -83 0 -122 11 -192 52 -115 69 -176
198 -168 356 7 150 78 261 207 325 59 29 75 32 151 32 70 0 95 -5 140 -26 72
-33 121 -77 151 -134 l24 -45 87 0 c68 0 88 3 88 14 0 34 -74 157 -125 207
-106 104 -218 149 -369 148 -50 0 -115 -7 -145 -15z"/>
<path d="M10168 7431 c-166 -55 -296 -198 -342 -377 -20 -78 -21 -222 -1 -299
62 -242 261 -405 494 -405 57 0 150 23 211 52 43 21 145 116 182 168 17 24 17
22 18 -82 l0 -108 80 0 80 0 0 520 0 520 -80 0 -79 0 -3 -106 -3 -107 -39 57
c-48 69 -93 106 -182 148 -60 28 -79 32 -173 35 -84 2 -118 -1 -163 -16z m338
-181 c150 -74 235 -243 206 -412 -23 -130 -91 -225 -204 -285 -48 -25 -62 -28
-158 -28 -95 0 -111 3 -162 28 -229 113 -278 450 -90 633 108 105 273 131 408
64z"/>
<path d="M11811 7434 c-158 -42 -297 -177 -358 -348 -40 -114 -35 -283 12
-399 31 -74 101 -173 154 -215 177 -142 429 -159 612 -41 66 42 152 137 182
201 l25 53 -96 3 c-84 3 -98 1 -107 -14 -30 -53 -100 -115 -154 -135 -78 -29
-205 -24 -276 11 -94 46 -181 165 -199 273 l-7 37 436 0 435 0 0 68 c0 239
-169 460 -390 511 -64 15 -205 12 -269 -5z m217 -154 c133 -31 236 -126 258
-239 l7 -31 -342 0 -342 0 7 23 c56 184 230 289 412 247z"/>
<path d="M4990 6900 l0 -520 85 0 85 0 0 520 0 520 -85 0 -85 0 0 -520z"/>
</g>
</svg>
