<?xml version="1.0" standalone="no"?>
<!DOCTYPE svg PUBLIC "-//W3C//DTD SVG 20010904//EN"
 "http://www.w3.org/TR/2001/REC-SVG-20010904/DTD/svg10.dtd">
<svg version="1.0" xmlns="http://www.w3.org/2000/svg"
 width="243.000000pt" height="227.000000pt" viewBox="0 0 243.000000 227.000000"
 preserveAspectRatio="xMidYMid meet">

<g transform="translate(0.000000,227.000000) scale(0.100000,-0.100000)"
fill="#000000" stroke="none">
<path d="M709 2047 c-63 -48 -34 -137 44 -137 24 0 58 -29 203 -176 96 -96
174 -181 174 -187 0 -15 -301 -317 -316 -317 -6 0 -45 31 -86 70 -66 61 -76
75 -81 112 -10 73 -71 101 -121 56 -54 -49 -23 -128 49 -128 25 0 45 -14 108
-78 42 -42 77 -82 77 -87 0 -5 -40 -50 -90 -100 l-89 -90 -4 -76 c-3 -58 -9
-84 -25 -107 -29 -40 -28 -74 4 -106 33 -33 63 -33 98 -1 32 29 34 72 6 108
-16 20 -20 40 -20 95 l0 69 271 264 c148 145 272 266 275 268 2 3 18 -11 34
-29 l30 -34 -265 -266 -265 -266 0 -127 c0 -120 -2 -130 -25 -165 -32 -46 -32
-72 0 -102 30 -28 77 -31 105 -5 27 24 27 85 0 110 -18 16 -20 31 -20 139 l0
121 259 259 259 258 61 -59 c33 -33 61 -64 61 -69 0 -5 -74 -156 -164 -334
-148 -295 -167 -327 -199 -344 -76 -41 -67 -130 16 -150 23 -5 34 -1 57 23 30
30 35 50 21 86 -6 15 33 102 165 366 96 191 174 353 174 360 0 8 -151 165
-335 349 -295 295 -335 339 -335 366 0 56 -68 94 -111 61z"/>
<path d="M935 2035 c-48 -48 -20 -116 54 -131 33 -7 44 -17 286 -274 214 -227
330 -352 334 -361 1 -6 -71 -158 -160 -339 -134 -269 -169 -330 -190 -338 -42
-16 -59 -40 -59 -83 0 -34 5 -42 32 -59 36 -22 62 -19 93 11 16 15 20 31 18
70 -2 47 9 73 167 390 94 186 170 344 170 350 0 16 -88 113 -400 444 -225 237
-220 232 -220 263 0 72 -76 107 -125 57z"/>
<path d="M1278 2046 c-40 -30 -42 -94 -4 -125 10 -8 16 -29 16 -53 0 -37 10
-50 183 -237 100 -108 217 -235 260 -283 l77 -85 0 -260 0 -260 50 -67 c38
-51 50 -75 50 -102 0 -69 41 -103 100 -83 74 26 65 128 -14 143 -27 5 -43 20
-80 69 l-46 62 0 262 0 261 -68 74 c-98 104 -132 144 -132 155 0 5 30 39 68
76 56 55 73 67 100 67 40 0 82 38 82 73 0 13 -9 36 -21 51 -16 20 -29 26 -59
26 -45 0 -67 -24 -74 -79 -3 -24 -20 -50 -67 -97 -35 -35 -70 -64 -79 -64 -8
0 -28 16 -44 36 l-29 36 114 116 c137 139 146 146 184 148 35 2 75 44 75 80 0
34 -42 74 -78 74 -37 0 -75 -40 -74 -78 0 -24 -22 -51 -134 -163 -121 -120
-136 -132 -148 -117 -7 10 -40 47 -74 83 -64 68 -78 107 -49 137 8 7 19 24 26
36 32 61 -55 131 -111 88z"/>
</g>
</svg>
